<svg xmlns="http://www.w3.org/2000/svg" width="32" height="32" viewBox="0 0 32 32" fill="none">
  <!-- Sun rays -->
  <circle cx="16" cy="16" r="1" fill="#FBBF24"/>
  <line x1="16" y1="4" x2="16" y2="7" stroke="#FBBF24" stroke-width="1.5" stroke-linecap="round"/>
  <line x1="16" y1="25" x2="16" y2="28" stroke="#FBBF24" stroke-width="1.5" stroke-linecap="round"/>
  <line x1="4" y1="16" x2="7" y2="16" stroke="#FBBF24" stroke-width="1.5" stroke-linecap="round"/>
  <line x1="25" y1="16" x2="28" y2="16" stroke="#FBBF24" stroke-width="1.5" stroke-linecap="round"/>
  <line x1="7.5" y1="7.5" x2="9.5" y2="9.5" stroke="#FBBF24" stroke-width="1.5" stroke-linecap="round"/>
  <line x1="22.5" y1="22.5" x2="24.5" y2="24.5" stroke="#FBBF24" stroke-width="1.5" stroke-linecap="round"/>
  <line x1="7.5" y1="24.5" x2="9.5" y2="22.5" stroke="#FBBF24" stroke-width="1.5" stroke-linecap="round"/>
  <line x1="22.5" y1="9.5" x2="24.5" y2="7.5" stroke="#FBBF24" stroke-width="1.5" stroke-linecap="round"/>
  
  <!-- Sun circle -->
  <circle cx="16" cy="16" r="5" fill="#FBBF24"/>
  
  <!-- Rack representation -->
  <rect x="12" y="22" width="8" height="1" fill="#3B82F6"/>
  <rect x="13" y="23" width="6" height="1" fill="#3B82F6"/>
  <rect x="14" y="24" width="4" height="1" fill="#3B82F6"/>
  <rect x="15" y="25" width="2" height="1" fill="#3B82F6"/>
  
  <!-- Base -->
  <rect x="10" y="26" width="12" height="2" fill="#6B7280"/>
</svg>